#!OML:ASF F:\VICON\USERDATA\INSTALL\rory3\rory3.ASF
:FULLY-SPECIFIED
:DEGREES
1852
root -1.27523 17.7761 -7.30608 0.777585 35.8588 -2.35319
lowerback 5.14684 -1.94346 -6.44814
upperback 2.90893 -2.83531 -1.04945
thorax 0.385543 -1.47657 2.6538
lowerneck -18.036 -6.52003 -13.4726
upperneck 28.0709 -6.16943 4.12038
head 13.0158 -3.59102 2.83612
rclavicle 7.5737e-014 -1.11319e-014
rhumerus -4.42234 11.8542 -51.6882
rradius 87.2887
rwrist -42.2341
rhand -10.618 5.52192
rfingers 7.12502
rthumb 15.3884 -23.8854
lclavicle 7.5737e-014 -1.11319e-014
lhumerus 1.87999 -15.7266 70.3766
lradius 94.2891
lwrist 63.6156
lhand 9.99094 28.5763
lfingers 7.12502
lthumb 35.1178 55.1048
rfemur -22.3845 4.21535 9.52059
rtibia 24.2776
rfoot -6.10413 -9.60159
rtoes 7.103
lfemur -7.25877 0.722787 -18.5085
ltibia 26.7485
lfoot -17.4983 3.23342
ltoes -12.4637
1853
root -1.28608 17.7755 -7.28799 0.602443 36.1102 -2.48646
lowerback 4.99796 -2.0247 -6.41372
upperback 2.93958 -2.92903 -0.973821
thorax 0.511204 -1.52825 2.70858
lowerneck -18.2359 -6.56805 -13.5812
upperneck 28.1827 -6.17168 4.11394
head 13.1095 -3.6046 2.84778
rclavicle -4.09496e-014 -3.18055e-015
rhumerus -2.94499 11.1635 -51.187
rradius 84.4104
rwrist -44.1832
rhand -11.73 4.05815
rfingers 7.12502
rthumb 14.3172 -25.4282
lclavicle -4.09496e-014 -3.18055e-015
lhumerus 3.5672 -16.2821 70.0326
lradius 91.5407
lwrist 64.1571
lhand 8.68879 29.394
lfingers 7.12502
lthumb 33.8817 56.2039
rfemur -22.1045 4.59144 9.41927
rtibia 23.8293
rfoot -5.65131 -9.51782
rtoes 7.13157
lfemur -7.14912 0.721432 -18.2917
ltibia 26.6964
lfoot -17.5206 2.9643
ltoes -12.6254
1854
root -1.29795 17.7724 -7.26899 0.547867 36.3595 -2.36264
lowerback 4.87704 -2.08942 -6.55501
upperback 2.96285 -3.00976 -0.969257
thorax 0.618825 -1.57411 2.78823
lowerneck -18.4727 -6.61818 -13.7118
upperneck 28.424 -6.1731 4.13669
head 13.2674 -3.61885 2.87568
rclavicle -4.31363e-014 -3.97569e-015
rhumerus -1.38034 10.3425 -50.7258
rradius 81.4875
rwrist -46.3569
rhand -13.0022 2.47466
rfingers 7.12502
rthumb 13.0911 -27.0945
lclavicle -4.31363e-014 -3.97569e-015
lhumerus 5.4397 -16.8565 69.6351
lradius 88.7024
lwrist 64.76
lhand 7.44464 30.6341
lfingers 7.12502
lthumb 32.6988 57.6974
rfemur -21.8063 4.79827 9.13361
rtibia 23.4232
rfoot -5.0528 -9.41509
rtoes 6.63811
lfemur -6.98451 0.761041 -18.3129
ltibia 26.6252
lfoot -17.5363 2.75194
ltoes -13.0871
1855
root -1.3107 17.7715 -7.24989 0.46314 36.6916 -2.19933
lowerback 4.86751 -2.15866 -6.70779
upperback 2.95095 -3.10699 -1.01446
thorax 0.627788 -1.62402 2.82924
lowerneck -18.5089 -6.67601 -13.8282
upperneck 28.6343 -6.26346 4.2874
head 13.384 -3.6555 2.94018
rclavicle 2.10712e-014 -5.56597e-015
rhumerus 0.226365 9.40393 -50.4152
rradius 78.5023
rwrist -48.5485
rhand -14.114 0.850752
rfingers 7.12502
rthumb 12.0192 -28.7841
lclavicle 2.10712e-014 -5.56597e-015
lhumerus 7.30595 -17.4822 69.2366
lradius 85.8586
lwrist 65.213
lhand 6.06509 32.0616
lfingers 7.12502
lthumb 31.3853 59.3889
rfemur -21.4279 4.97796 8.83273
rtibia 23.0925
rfoot -4.61413 -9.26409
rtoes 5.93657
lfemur -6.76319 0.709101 -18.3611
ltibia 26.5363
lfoot -17.5071 2.56528
ltoes -13.4577
1856
root -1.3271 17.7708 -7.23336 0.272999 37.0672 -2.20583
lowerback 4.92912 -2.25828 -6.76866
upperback 2.94177 -3.247 -1.0013
thorax 0.602351 -1.69378 2.8839
lowerneck -18.4838 -6.69707 -13.8943
upperneck 28.7319 -6.30919 4.3851
head 13.4315 -3.67239 2.98353
rclavicle 1.8487e-014 -5.48646e-014
rhumerus 2.02171 8.36088 -50.2428
rradius 75.454
rwrist -50.7315
rhand -15.1743 -0.580941
rfingers 7.12502
rthumb 10.9967 -30.2729
lclavicle 1.8487e-014 -5.48646e-014
lhumerus 9.26576 -17.9955 68.8336
lradius 83.0492
lwrist 65.6452
lhand 4.33354 33.3846
lfingers 7.12502
lthumb 29.7341 61.0196
rfemur -21.0613 5.23165 8.69996
rtibia 22.8507
rfoot -4.35639 -9.13535
rtoes 5.54463
lfemur -6.55331 0.563132 -18.2475
ltibia 26.4364
lfoot -17.4318 2.33983
ltoes -13.4333
1857
root -1.33954 17.7703 -7.21648 0.316819 37.328 -2.1058
lowerback 4.81204 -2.35254 -6.89384
upperback 2.88675 -3.37083 -0.953754
thorax 0.633937 -1.75781 3.00174
lowerneck -18.6365 -6.70195 -13.9494
upperneck 28.94 -6.24289 4.28831
head 13.5449 -3.66509 2.96545
rclavicle -2.36554e-014 -1.51076e-014
rhumerus 4.00258 7.28678 -50.0636
rradius 72.386
rwrist -52.7814
rhand -16.4545 -1.8851
rfingers 7.12502
rthumb 9.76165 -31.6389
lclavicle -2.36554e-014 -1.51076e-014
lhumerus 11.3731 -18.4247 68.4455
lradius 80.0978
lwrist 66.044
lhand 2.68182 34.2411
lfingers 7.12502
lthumb 28.1565 62.1468
rfemur -20.9275 5.30878 8.50552
rtibia 22.6477
rfoot -3.91399 -8.84786
rtoes 5.06697
lfemur -6.51352 0.491349 -18.2472
ltibia 26.3484
lfoot -17.3953 2.12897
ltoes -13.2118
1858
root -1.35083 17.7674 -7.19852 0.35083 37.4614 -2.00575
lowerback 4.72503 -2.38184 -6.95599
upperback 2.79415 -3.41031 -0.946393
thorax 0.594865 -1.77536 3.04343
lowerneck -18.6501 -6.67283 -13.9832
upperneck 29.125 -6.17352 4.24668
head 13.6196 -3.64808 2.96939
rclavicle -5.00937e-014 -1.03368e-014
rhumerus 5.90685 6.02471 -50.0194
rradius 69.3379
rwrist -54.4716
rhand -17.8782 -3.12596
rfingers 7.12502
rthumb 8.38786 -32.9394
lclavicle -5.00937e-014 -1.03368e-014
lhumerus 13.5648 -19.0205 67.9305
lradius 77.13
lwrist 66.5579
lhand 0.860606 34.677
lfingers 7.12502
lthumb 26.4144 62.8567
rfemur -20.8079 5.42192 8.3367
rtibia 22.4567
rfoot -3.52622 -8.51466
rtoes 4.87037
lfemur -6.46275 0.523189 -18.2413
ltibia 26.3137
lfoot -17.4189 1.97909
ltoes -13.3277
1859
root -1.36582 17.7635 -7.1792 0.256795 37.6044 -2.00222
lowerback 4.72421 -2.38616 -6.90014
upperback 2.73726 -3.41704 -0.977464
thorax 0.531376 -1.7745 2.98247
lowerneck -18.6617 -6.63384 -13.9453
upperneck 29.3183 -6.12642 4.24134
head 13.6972 -3.62829 2.97254
rclavicle 3.1408e-014 1.98785e-014
rhumerus 7.7853 4.4938 -50.2262
rradius 66.3212
rwrist -55.8645
rhand -18.7592 -3.829
rfingers 7.12502
rthumb 7.53763 -33.6747
lclavicle 3.1408e-014 1.98785e-014
lhumerus 15.9476 -19.6725 67.2953
lradius 74.3192
lwrist 67.4353
lhand -1.58419 35.695
lfingers 7.12502
lthumb 24.0722 64.2052
rfemur -20.6209 5.60944 8.27278
rtibia 22.3114
rfoot -3.34681 -8.31831
rtoes 5.15115
lfemur -6.34999 0.490917 -18.1412
ltibia 26.3062
lfoot -17.4538 1.89937
ltoes -13.3722
1860
root -1.38437 17.7617 -7.15721 0.0977308 37.8032 -2.10088
lowerback 4.76312 -2.46395 -6.86616
upperback 2.6846 -3.52572 -0.899012
thorax 0.469019 -1.82628 3.05123
lowerneck -18.7969 -6.56823 -14.0398
upperneck 29.5301 -5.96787 4.21483
head 13.8036 -3.57703 3.00739
rclavicle -6.57977e-014 6.36111e-015
rhumerus 9.82069 3.0393 -50.5126
rradius 63.4114
rwrist -56.9375
rhand -18.9859 -4.16561
rfingers 7.12502
rthumb 7.31878 -34.019
lclavicle -6.57977e-014 6.36111e-015
lhumerus 18.2912 -19.9999 66.8202
lradius 71.6657
lwrist 68.9213
lhand -4.79216 37.3587
lfingers 7.12502
lthumb 20.9931 66.2425
rfemur -20.4175 5.74138 8.36564
rtibia 22.2133
rfoot -3.1017 -8.33775
rtoes 5.24398
lfemur -6.24915 0.328788 -17.9456
ltibia 26.2959
lfoot -17.4667 1.88529
ltoes -13.1738
1861
root -1.40369 17.7629 -7.13618 -0.0852742 38.0584 -2.23712
lowerback 4.85838 -2.58254 -6.80887
upperback 2.64147 -3.69161 -0.78862
thorax 0.391888 -1.9064 3.14452
lowerneck -18.9862 -6.52752 -14.1306
upperneck 29.76 -5.81465 4.12108
head 13.9288 -3.5371 3.01258
rclavicle -2.04748e-014 1.51076e-014
rhumerus 11.8649 1.54773 -50.9152
rradius 60.7832
rwrist -57.4314
rhand -19.1801 -4.64567
rfingers 7.12502
rthumb 7.13127 -34.5055
lclavicle -2.04748e-014 1.51076e-014
lhumerus 20.4891 -20.1474 66.3457
lradius 69.2766
lwrist 71.0092
lhand -7.80942 39.289
lfingers 7.12502
lthumb 18.0922 68.4675
rfemur -20.1968 5.80001 8.52835
rtibia 22.1486
rfoot -2.67135 -8.48267
rtoes 5.17775
lfemur -6.17144 0.0629871 -17.7343
ltibia 26.2925
lfoot -17.4669 1.87366
ltoes -13.2529
1862
root -1.41863 17.7636 -7.11544 -0.0699831 38.3494 -2.16628
lowerback 4.81866 -2.69832 -6.82211
upperback 2.66084 -3.84186 -0.74206
thorax 0.454134 -1.98451 3.20104
lowerneck -19.1765 -6.53559 -14.1378
upperneck 29.8349 -5.73454 3.95059
head 13.9894 -3.52608 2.95644
rclavicle -7.37491e-014 2.70347e-014
rhumerus 13.9752 -0.174948 -51.4909
rradius 58.381
rwrist -57.3541
rhand -19.5984 -5.3902
rfingers 7.12502
rthumb 6.72748 -35.2633
lclavicle -7.37491e-014 2.70347e-014
lhumerus 22.8097 -20.209 65.8187
lradius 67.1715
lwrist 73.6559
lhand -9.67838 41.1195
lfingers 7.12502
lthumb 16.2933 70.455
rfemur -20.0517 5.67022 8.50441
rtibia 22.1589
rfoot -2.29663 -8.43711
rtoes 6.38443
lfemur -6.14922 -0.187383 -17.7279
ltibia 26.272
lfoot -17.4639 1.89684
ltoes -13.9195
1863
root -1.43554 17.7644 -7.09424 -0.0924251 38.6247 -2.20485
lowerback 4.84435 -2.86289 -6.78156
upperback 2.61373 -4.06401 -0.629374
thorax 0.419832 -2.09429 3.30386
lowerneck -19.3594 -6.46925 -14.2041
upperneck 29.9378 -5.52672 3.78493
head 14.0498 -3.46728 2.93669
rclavicle 6.41081e-014 -2.06736e-014
rhumerus 16.1325 -1.75363 -52.2738
rradius 56.1429
rwrist -56.9849
rhand -20.1553 -5.54833
rfingers 7.12502
rthumb 6.18985 -35.4379
lclavicle 6.41081e-014 -2.06736e-014
lhumerus 24.7965 -19.9188 65.553
lradius 65.3117
lwrist 76.3308
lhand -11.3535 41.983
lfingers 7.12502
lthumb 14.68 71.4433
rfemur -19.9651 5.56547 8.59262
rtibia 22.2573
rfoot -2.19282 -8.29973
rtoes 8.05165
lfemur -6.14739 -0.473718 -17.608
ltibia 26.2122
lfoot -17.3877 1.90609
ltoes -14.183
